<?xml version="1.0" encoding="UTF-8"?><svg id="Camada_2" xmlns="http://www.w3.org/2000/svg" xmlns:xlink="http://www.w3.org/1999/xlink" viewBox="0 0 570.35 570.35"><defs><style>.cls-1,.cls-2,.cls-3,.cls-4{fill:none;}.cls-5,.cls-6{fill:#4f0000;}.cls-6{opacity:.2;}.cls-7{fill:#f48186;}.cls-8{fill:#d1810f;}.cls-9{clip-path:url(#clippath-1);}.cls-2{stroke-width:8px;}.cls-2,.cls-3{stroke-linecap:round;stroke-linejoin:round;}.cls-2,.cls-3,.cls-4{stroke:#4f0000;}.cls-3{stroke-width:5.57px;}.cls-10{fill:#fff;}.cls-11{fill:#31a7ff;}.cls-4{stroke-miterlimit:10;stroke-width:3px;}.cls-12{clip-path:url(#clippath);}</style><clipPath id="clippath"><path class="cls-1" d="M185.57,308.04s2.99-34.15,38.11-36.64c35.12-2.49,37.1,38.83,37.1,38.83,0,0-16.24,13-39.43,11.65-10.75-.62-22.98-4.33-35.79-13.84Z"/></clipPath><clipPath id="clippath-1"><path class="cls-1" d="M403.49,297.08s-7.65-33.42-42.78-31.07c-35.13,2.35-31.42,43.56-31.42,43.56,0,0,17.87,10.64,40.65,6.13,10.56-2.09,22.17-7.44,33.55-18.62Z"/></clipPath></defs><g id="Layer_2"><rect class="cls-11" width="570.35" height="570.35"/><path class="cls-5" d="M258.91,167.11l-98.62,79.28s-13.74-49.06-6.19-93.09c3.68-21.41,9.76-38.8,17.05-51.04v-.02c7.66-12.9,16.63-20.09,25.5-20.25,8.33-.16,20.22,13.99,31.41,30.81v.04c16.21,24.36,30.85,54.27,30.85,54.27Z"/><path class="cls-2" d="M258.9,167.11l-98.61,79.27s-13.74-49.05-6.19-93.08c7.55-44.03,25.29-70.99,42.54-71.32,20.4-.38,62.26,85.12,62.26,85.12Z"/><path class="cls-10" d="M173.48,219.75s-11.87-75.18,14.63-111.54c3.25-4.46,9.86-4.51,13.07-.02,7.95,11.17,22.19,32.9,31.57,57.18l-59.26,54.37Z"/><path class="cls-7" d="M187.6,195.43s-.73-32.12,5.2-51.22c.8-2.57,4.29-2.94,5.62-.59l15.18,26.93-26,24.88Z"/><path class="cls-2" d="M187.6,195.43s-.73-32.12,5.2-51.22c.8-2.57,4.29-2.94,5.62-.59l15.18,26.93-26,24.88Z"/><path class="cls-6" d="M258.91,167.11l-98.62,79.28s-13.74-49.06-6.19-93.09c3.68-21.41,9.76-38.8,17.05-51.04-10.94,25.37-8.88,79.61,20.65,69.55,29.53-10.05,40.21-43.91,36.26-58.98,16.2,24.36,30.85,54.27,30.85,54.27Z"/><path class="cls-5" d="M324.2,165.88l101.52,75.51s11.89-49.53,2.68-93.25c-9.21-43.71-27.95-69.99-45.2-69.66-20.4.38-59.01,87.41-59.01,87.41Z"/><path class="cls-2" d="M324.2,165.88l101.52,75.51s11.89-49.53,2.68-93.25c-9.21-43.71-27.95-69.99-45.2-69.66-20.4.38-59.01,87.41-59.01,87.41Z"/><path class="cls-10" d="M411.55,215.27s9.03-75.58-18.82-110.91c-3.42-4.34-10.03-4.14-13.06.48-7.53,11.46-20.94,33.72-29.39,58.33l61.26,52.1Z"/><path class="cls-7" d="M396.52,191.5s-.48-32.12-7.13-50.99c-.9-2.54-4.4-2.78-5.63-.38l-14.16,27.48,26.92,23.89Z"/><path class="cls-2" d="M396.52,191.5s-.48-32.12-7.13-50.99c-.9-2.54-4.4-2.78-5.63-.38l-14.16,27.48,26.92,23.89Z"/><path class="cls-6" d="M324.2,165.88l101.53,75.51s11.88-49.54,2.69-93.26c-4.48-21.26-11.21-38.41-18.96-50.36,11.89,24.94,11.87,79.22-18.01,70.28-29.88-8.93-41.84-42.37-38.45-57.57-15.28,24.96-28.79,55.4-28.79,55.4Z"/><path class="cls-10" d="M475.08,334.83c-12.62,32.43-59.46,126.99-178.03,129.22h-.02c-104.14,1.96-155.66-69.33-176.02-108.36-2.82-5.41-5.05-10.19-6.73-14.07-2.83-6.52-2.91-13.91-.16-20.47,6.08-14.52,12.33-27.96,18.63-40.37.02-.06.05-.1.07-.15,1.37-2.67,2.72-5.31,4.09-7.88.02-.02.04-.04.04-.06,28.07-53.04,56.6-85.86,73.9-102.92,9.5-9.37,22.2-14.75,35.52-15l89.66-1.69c13.32-.25,26.21,4.65,36.06,13.65,22.87,20.89,64.92,66.73,102.36,147.63,2.99,6.45,3.19,13.83.63,20.46Z"/><path class="cls-5" d="M475.07,334.82c-1.53,3.95-3.58,8.81-6.2,14.32-2.43-15.82-24.27-35.74-44.77-24.08,0,0,12.25-57.74-26.99-99.16-39.21-41.37-77.24,5.11-79.69,24.03.1-2.05,2.57-57.32-25.47-56.81h-.02c-28.57.56-23.32,57.79-23.32,57.79-3.06-18.77-42.87-63.96-80.52-21.07-37.66,42.85-23.26,100.09-23.26,100.09-20.92-10.89-41.99,9.86-43.83,25.75-2.81-5.4-5.05-10.19-6.72-14.07-2.84-6.52-2.91-13.91-.16-20.47,6.1-14.59,12.37-28.06,18.71-40.51,29.35-57.74,59.87-92.98,78.01-110.87,9.5-9.36,22.2-14.75,35.53-14.99l89.66-1.69c13.31-.25,26.21,4.66,36.05,13.66,5.14,4.69,11.24,10.64,18.06,17.98,3.22,3.48,6.6,7.26,10.12,11.36,22.05,25.77,49.16,64.18,74.19,118.29,2.99,6.44,3.18,13.83.61,20.45Z"/><path class="cls-6" d="M475.04,334.83c-1.53,3.94-3.58,8.8-6.2,14.31-15.6,32.88-51.67,88.6-122.55,108.03-7.98,2.19-16.4,3.91-25.29,5.1-7.65,1.02-15.63,1.63-23.98,1.79-104.14,1.96-155.66-69.33-176.02-108.36-2.82-5.41-5.05-10.19-6.73-14.07-2.83-6.52-2.91-13.91-.16-20.47,6.08-14.52,12.33-27.96,18.63-40.37.02-.06.05-.1.07-.15,1.37-2.67,2.72-5.31,4.09-7.88-13.05,26.67,26.33,178.47,159.83,175.96,133.5-2.51,167.14-155.69,153.09-181.85,1.47,2.52,2.91,5.11,4.38,7.72.02.06.06.09.08.15,6.77,12.16,13.52,25.36,20.14,39.64,2.99,6.45,3.19,13.83.61,20.46Z"/><path class="cls-5" d="M331.49,359s-8.95,61.9-35.31,62.44h-.02c-26.36.46-37.63-61.06-37.63-61.06,25.34,6.37,35.72-11.52,36.25-12.48,0-.02.02-.02.02-.02v.02c.57.93,11.61,18.42,36.69,11.1Z"/><path class="cls-5" d="M297.08,465.51c-42.17,5.53-85.41-9.47-119.01-34.69-21.2-15.96-38.82-36.23-52.71-58.71-6.2-10.3-12.18-20.84-16.37-32.16-1.99-6.53-1.7-13.73.84-20.07.28-.69,3.46-8.09,3.88-9.06,1.75-4.06,4.45-10.23,6.41-14.3,8.73-18.93,18.71-37.51,29.54-55.31,10.97-17.79,23.05-35.1,36.44-51.18,6.71-8.07,13.77-15.88,21.25-23.32,7.92-7.97,18.37-13.52,29.47-15.61,4.05-.83,8.25-1.02,12.39-1.06,2.41-.06,16.69-.3,19.44-.36,4.39-.1,68.01-1.26,70.23-1.17,5.64.21,11.25,1.24,16.57,3.1,7.96,2.72,15.22,7.35,21.25,13.2,1.45,1.33,4.31,4.07,5.71,5.46,39.1,38.75,69.02,85.93,92.59,135.42,0,0,3.37,7.1,3.37,7.1,2.49,5.49,3.25,11.73,2.22,17.65-.44,2.79-1.55,5.76-2.59,8.25-23.62,57.73-72.44,110.75-136.18,120.93-.7.11-1.37-.36-1.48-1.07-.1-.63.28-1.23.87-1.43,19.58-6.57,38.14-15.26,54.85-26.84,34.65-23.66,60.56-59.09,75.52-98.07,1.69-5.18,1.41-10.98-.88-15.93-24.01-50.98-54.39-99.78-94.62-139.54-1.35-1.35-4.13-3.99-5.54-5.28-10.89-10.66-24.41-14.78-39.49-13.72-15.87.3-68.62,1.38-83.59,1.64-2.97.04-5.97.26-8.88.84-9.29,1.75-17.99,6.32-24.71,13.06-7.24,7.18-14.12,14.76-20.68,22.63-19.7,23.67-36.55,49.68-51.08,76.81-8.6,15.92-16.55,32.99-23.66,49.62-2.36,5.19-2.52,11.27-.48,16.6,2.15,5.19,4.65,10.33,7.26,15.34,4.72,9.01,10.03,17.73,15.92,26.02,23.3,33.21,56.65,59.77,95.68,71.62,19.6,6.01,39.77,8.38,60.2,10.64.82.08,1.41.82,1.31,1.64-.08.68-.61,1.2-1.26,1.29h0Z"/><path class="cls-5" d="M294.69,338.77c-9.13.17-26.45-16.14-24.73-23.2,1.72-7.06,24.12-8.96,24.12-8.96,0,0,22.46,1.05,24.42,8.05,1.98,6.99-14.71,23.94-23.82,24.11Z"/><path class="cls-2" d="M331.49,355.83s-8.95,61.9-35.31,62.44h-.02c-26.36.46-37.63-61.06-37.63-61.06,25.34,6.37,35.72-11.52,36.25-12.48,0-.02.02-.02.02-.02v.02c.57.93,11.61,18.42,36.69,11.1Z"/><path class="cls-2" d="M294.8,344.7s-.02,0-.02.02v-.04s0,0,.02.02Z"/><path class="cls-5" d="M257.16,360.96c-5.52-2.55-9.4-7.81-10.81-13.58-.47-1.85-.74-3.55-.81-5.5-.03-.99.75-1.83,1.74-1.86.93-.03,1.68.64,1.85,1.51,1.41,5.39,5.25,10.86,10.96,11.97,5.58,1.85,2.42,9.91-2.93,7.46h0Z"/><path class="cls-5" d="M329.98,352.13c5.64-1.37,9.2-7.06,10.37-12.49.47-2.07,3.55-1.72,3.56.38.07,7.82-3.68,15.85-10.89,19.5-5.38,2.68-8.75-5.52-3.04-7.4h0Z"/><path class="cls-7" d="M315.65,407.38c-3.53,8.05-13.24,9.5-19.13,9.5h-.02c-5.89,0-15.6-1.46-19.13-9.5-3.53-8.06,5.46-22.71,19.13-22.72h.02c13.67.01,22.66,14.67,19.13,22.72Z"/><path class="cls-6" d="M315.65,407.38c-3.53,8.05-13.24,9.5-19.13,9.5h-.02c-5.89,0-15.6-1.46-19.13-9.5-1.13-2.58-.97-5.84.2-9.07,3.69,7.67,13.16,9.07,18.93,9.07h.02c5.78,0,15.24-1.4,18.93-9.07,1.16,3.23,1.33,6.49.2,9.07Z"/><path class="cls-3" d="M315.65,407.38c-3.53,8.05-13.24,9.5-19.13,9.5h-.02c-5.89,0-15.6-1.46-19.13-9.5-3.53-8.06,5.46-22.71,19.13-22.72h.02c13.67.01,22.66,14.67,19.13,22.72Z"/><g class="cls-12"><path class="cls-10" d="M185.57,308.04s4.44-39.96,39.56-42.45c35.12-2.49,35.66,44.64,35.66,44.64,0,0-16.24,13-39.43,11.65-10.75-.62-22.98-4.33-35.79-13.84Z"/><ellipse class="cls-8" cx="241.43" cy="297.61" rx="25.84" ry="22.15" transform="translate(-29.44 26.52) rotate(-5.93)"/><circle class="cls-5" cx="245.39" cy="299.31" r="19.39"/><circle class="cls-10" cx="228.66" cy="290.56" r="5.55"/></g><path class="cls-5" d="M184.44,307.92c.7-16.7,8.87-34.19,24.39-42,16.91-8.22,37.22-5.37,46.61,12.07,5.38,9.79,7.2,21.21,6.48,32.24-.05.63-.6,1.09-1.23,1.04-.56-.05-.98-.48-1.04-1.02-.82-5.13-1.98-10.28-3.61-15.14-4.27-13.49-12.88-25.88-28.18-25.6-22.89-.03-35.72,18.31-41.16,38.66-.25,1.33-2.3,1.14-2.26-.25h0Z"/><g class="cls-9"><path class="cls-10" d="M403.49,297.08s-5.09-38.84-40.21-36.49c-35.13,2.35-33.99,48.98-33.99,48.98,0,0,17.87,10.64,40.65,6.13,10.56-2.09,22.17-7.44,33.55-18.62Z"/><path class="cls-8" d="M321.14,298.94c.06,14.62,13.16,25.67,29.26,24.68,16.1-.99,29.1-13.65,29.04-28.27-.06-14.62-13.16-25.67-29.26-24.68-16.1.99-29.1,13.65-29.04,28.27Z"/><circle class="cls-5" cx="347.05" cy="298" r="20.55"/><circle class="cls-10" cx="361.95" cy="284.66" r="5.98"/></g><path class="cls-5" d="M402.36,297.26c-4.82-15.44-15.82-31.13-33.14-32.32-7.45-.66-15.41.54-21.54,5.05-12.01,8.99-15.56,25.28-17.26,39.53-.05,1.34-2.08,1.47-2.27.1-2.72-20.28,4.6-46.19,26.84-51.61,19.88-4.65,37.77,4.27,45.67,23.09,2.12,5.09,3.56,10.33,3.95,15.81.05.63-.43,1.17-1.05,1.22-.57.04-1.06-.34-1.19-.86h0Z"/><path class="cls-10" d="M269.84,358.34c2.13,3.63,4.25,7.26,6.38,10.89,1.57-4.14,3.14-8.28,4.71-12.42-3.69.51-7.39,1.03-11.08,1.54Z"/><path class="cls-10" d="M321.96,358.34c-2.13,3.63-4.25,7.26-6.38,10.89-1.57-4.14-3.14-8.28-4.71-12.42,3.69.51,7.39,1.03,11.08,1.54Z"/><path class="cls-4" d="M331.49,355.83c-25.08,7.31-36.13-10.17-36.69-11.1v-.02s-.02,0-.02.02c-.53.96-10.91,18.84-36.25,12.48,2.16.81,11.77,4.12,22.39-.4,8.24-3.5,12.45-9.74,13.87-12.1,1.36,2.05,6.36,9.05,16.08,12.1,10.05,3.15,18.41-.05,20.61-.97Z"/></g></svg>